<svg id="Layer_1" data-name="Layer 1" xmlns="http://www.w3.org/2000/svg" width="342.04" height="465.09" viewBox="0 0 342.04 465.09"><defs><style>.cls-1,.cls-3,.cls-4{fill:#fbbe13;}.cls-2{fill:none;}.cls-2,.cls-3,.cls-4,.cls-5,.cls-6,.cls-7{stroke:#010101;stroke-linecap:round;stroke-width:1.5px;}.cls-2,.cls-4,.cls-5,.cls-6,.cls-7{stroke-linejoin:round;}.cls-5{fill:#ed1c24;}.cls-6{fill:#010101;}.cls-7{fill:#fff;}</style></defs><title>Untitled-2</title><g id="_695482576" data-name=" 695482576"><path class="cls-1" d="M290.82,648.13c-2.56-3.59-4.1-3.08-5.13-.51a23.68,23.68,0,0,0-7.18-8.21c-3.59,6.15-7.18,6.67-10.26,1-13.33-22.56-31.28-24.1-57.95-39-44.62-24.62-93.85-63.08-54.87-140.51-5.13-2.05-9.23-8.21-7.69-17.95,1.54-12.82-4.62-19.49-11.79-22.05h0c-5.13-2.05-7.18-5.64-8.21-11.28-0.51-12.82,15.38-17.95,22.56-9.74,4.62,6.67,1,14.36-2.56,15.9,10.26-3.59,11.79-15.9,10.77-49.74-1-23.59-3.08-39.49-6.67-47.69,0,1,.51,2.05.51,3.08,0,11.79-22.05,13.33-22.56-4.1,1-8.21,6.15-11.79,11.79-12.31l-0.51-.51c29.23-2.05,21-16.92,26.15-23.08,5.13-9.23,16.41-11.28,25.13,0a31,31,0,0,0,11.79,6.67c2.05,1,3.59,1,5.64,1.54,9.23,0.51,18.46-5.13,31.79-13.85l-9.23-39.49L219,229.67l-7.69-27.18,38.46-9.23,16.92,12.31,3.08,22.05,10.77-1-5.13-7.69-1-27.69h47.18l-1,27.69-5.13,7.69,10.77,1,3.08-22.05,16.92-12.31,38.46,9.23L377,229.67l-13.33,6.67-9.23,39.49c10.77,6.67,19,11.79,26.15,13.33a23,23,0,0,0,5.64.51c5.64-.51,11.28-3.08,17.44-8.21,3.08-4.1,6.67-6.67,10.26-7.18a10,10,0,0,1,3.59-.51,14.51,14.51,0,0,1,11.28,7.69c5.13,6.15-3.08,21,25.64,23.08v0.51c5.64,0.51,10.77,4.1,11.79,12.31-0.51,17.44-22.56,15.9-22.56,4.1,0-1,.51-2.05.51-3.08-3.59,8.21-5.64,24.1-6.67,47.69-1,33.85.51,46.15,10.77,49.74-3.59-1.54-7.18-9.23-2.56-15.9,7.18-8.21,23.08-3.08,22.56,9.74-1,5.64-3.08,9.23-8.21,11.28-7.18,2.56-13.33,9.23-11.79,22.05,1.54,9.74-2.56,15.9-7.69,17.95,39,77.44-10.26,115.9-54.87,140.51-26.67,14.87-44.62,16.41-57.95,39-3.59,5.64-6.67,5.13-10.26-1a23.68,23.68,0,0,0-7.18,8.21c-1-2.56-2.56-3.08-5.13.51-1,1.54-2.56,3.59-7.18,6.67C293.38,651.72,291.85,649.67,290.82,648.13ZM440.56,460.95h0Zm-285.13,0v0h0Zm9.23-.51h0Zm266.67,0h0Zm-286.15-44.1h0Zm306.15,0h0Zm-304.62,0h0Zm304.1,0h0Zm-307.18,0h0Zm307.69,0h0Zm-307.69,0h0Zm308.72,0h0Zm-310.26,0h0Zm311.28,0h0Zm-305.64-.51a1,1,0,0,1-1,.51A1,1,0,0,0,147.74,415.82Zm300.51,0a1,1,0,0,0,1,.51A1,1,0,0,1,448.26,415.82Zm-306.15.51c-0.51-.51-0.51,0,0,0h0Zm311.79,0h0Zm-311.79,0-0.51-.51,0.51,0.51h0Zm311.79,0,0.51-.51-0.51.51h0Zm-312.82-.51h0Zm313.33,0h0Zm-313.33,0h0Zm313.85,0h0Zm-313.85,0h0Zm313.85,0h0Zm-314.87-.51h0l0.51,0.51Zm315.38,0.51,0.51-.51h0Zm-315.9-.51h0Zm316.92,0h0Zm0,0h0Zm-316.41,0h0Zm-1-.51h0l0.51,0.51A0.5,0.5,0,0,0,139,414.79Zm317.44,0.51,0.51-.51h0Zm-317.44-1v0.51C138.51,414.28,138.51,414.28,139,414.28ZM457,414.79h0c0.51-.51,1-1.54,0,0h0Zm-317.95,0v-0.51c-0.51,0-.51,0,0,0.51h0Zm317.95,0h0Zm0,0h0Zm0,0h0Zm0,0h0Zm0,0h0Zm0,0h0v0h0Zm0,0h0Zm-317.95,0L137,411.72c-0.51-.51-0.51,0,1.54,2.05C138,413.77,138.51,414.28,139,414.79Zm317.95,0,2.05-3.08v-0.51C459,411.72,458.51,412.74,457,414.79Zm0,0v-0.51h0v0.51ZM139,414.28c-1-.51-0.51,0,0,0.51h0C138.51,413.77,138,413.26,139,414.28ZM457,414.79h0l0.51-.51C457,414.28,457,414.28,457,414.79Zm0,0h0c1-1.54,1-1.54,1-1Zm0-.51h0Zm1-.51c0-.51,0,0-0.51.51A0.5,0.5,0,0,1,458,413.77Zm-319,.51h0Zm317.95,0h0Zm-318.46-.51,0.51,0.51ZM137,411.72l-0.51-2.56A5.58,5.58,0,0,0,137,411.72Zm322.56-2.56L459,411.21c0.51-.51.51-0.51,0,0.51A5.58,5.58,0,0,0,459.54,409.15Zm-323.08,0h0Zm323.08,0h0Zm-323.08-1h0v0Zm323.08,1v-1h0v1Zm-323.08-1H137c0-1,0-.51-0.51,0h0Zm323.08,0c-0.51-.51-0.51-1-0.51,0h0.51Zm-323.08,0,1-1.54h0a2.25,2.25,0,0,0-.51,1.54h-0.51Zm323.08,0-1-1.54h0l1,1.54h0Zm0,0h0c-0.51-1-.51-0.51,0,0h0Zm-0.51,0s0-.51.51,0H459Zm-316.41-2.05a0.5,0.5,0,0,0,.51.51C142.62,406.08,142.1,406.08,142.62,406.08Zm310.77,0-0.51.51A0.5,0.5,0,0,0,453.38,406.08Zm-315.9.51h0Zm0,0h0Zm321,0h0Zm0,0h0Zm-321,0h0Zm0,0h0Zm321,0h0Zm-321,0h0Zm321,0h0Zm0,0h0Zm-321,0h0Zm321,0h0Zm-321,0h0Zm321,0h0Zm-321,0h0Zm321,0h0Zm-321,0,1-1a1.79,1.79,0,0,1,1-.51,1.79,1.79,0,0,0-1,.51Zm321,0-1-1a1.79,1.79,0,0,0-1-.51,1.79,1.79,0,0,1,1,.51Zm-5.13-.51,0.51-.51Zm-310.77,0-0.51-.51Zm-0.51-.51h0Zm311.79,0h0Zm-311.79,0h0Zm311.79,0h0.51c0-.51,0,0-0.51,0h0Zm-311.79,0h0Zm-0.51,0v-0.51h0C141.08,405.05,141.59,405.05,141.59,405.56Zm312.82-.51h0v0.51C454.41,405.05,454.92,405.05,454.41,405.05Zm-312.82,0h0Zm312.82,0h0Zm0.51,0h0Zm-313.85,0h0Zm-1.54,0h0Zm316.92,0h0Zm-315.38,0h0Zm314.36,0h0Zm-315.9,0h0Zm316.92,0h0Zm-316.41,0h0Zm315.9,0h0Zm-314.87,0h0Zm314.36,0h0Zm-314.87,0h0Zm314.87,0h0ZM138.51,319.41a30.49,30.49,0,0,0,1.54,3.59C139,321.46,138.51,320.44,138.51,319.41Zm319,0c0,1-.51,2.05-1.54,3.59A30.49,30.49,0,0,0,457.49,319.41Zm-319,0v0Zm319-1v0Zm-309.74-4.62c1.54,1,2.56,2.56,4.1,4.62A12.11,12.11,0,0,0,147.74,313.77Zm300.51,0a12.11,12.11,0,0,0-4.1,4.62C445.69,316.33,446.72,314.79,448.26,313.77Zm-309.74,3.59h0v0Zm319,1v-0.51c0-.51-0.51-0.51,0-0.51h0v1Zm-319-1v0.51C138.51,317.36,139,316.85,138.51,317.36Zm319,0.51v-0.51C457,316.85,457.49,317.36,457.49,317.87Zm-319-.51,1.54-2.56c-0.51.51-.51,1-1,2.56h-0.51Zm318.46,0c-0.51-2.05-.51-2.05-1-2.56l1.54,2.56H457Zm0,0h0Zm-317.95,0c0-1,0-1-.51,0H139Zm318.46,0c-0.51-1-.51-1-0.51,0h0.51Zm-0.51,0h0Zm-316.92-2.56h0Zm315.9,0h0Zm-315.9,0v0h0Zm315.9-.51v0.51h0v-0.51Zm-315.9.51,0.51-.51h-0.51v0.51h0Zm315.9,0v-0.51h-0.51l0.51,0.51h0Zm0-.51h0Zm-315.9,0h0Zm4.1-1.54h0a5.54,5.54,0,0,0-3.59,1.54C142.1,313.26,143.13,312.74,144.15,312.74Zm307.69,0h0c1,0,2.05.51,3.59,1.54A5.54,5.54,0,0,0,451.85,312.74Zm-306.67,0a3.92,3.92,0,0,1,2.56,1A3.92,3.92,0,0,0,145.18,312.74Zm305.64,0a3.92,3.92,0,0,0-2.56,1A3.92,3.92,0,0,1,450.82,312.74Z" transform="translate(-126.98 -190.46)"/><path id="_1" data-name="1" class="cls-2" d="M290.82,648.13c-2.56-3.59-4.1-3.08-5.13-.51a23.68,23.68,0,0,0-7.18-8.21c-3.59,6.15-7.18,6.67-10.26,1-13.33-22.56-31.28-24.1-57.95-39-44.62-24.62-93.85-63.08-54.87-140.51-5.13-2.05-9.23-8.21-7.69-17.95,1.54-12.82-4.62-19.49-11.79-22.05h0c-5.13-2.05-7.18-5.64-8.21-11.28-0.51-12.82,15.38-17.95,22.56-9.74,4.62,6.67,1,14.36-2.56,15.9,10.26-3.59,11.79-15.9,10.77-49.74-1-23.59-3.08-39.49-6.67-47.69,0,1,.51,2.05.51,3.08,0,11.79-22.05,13.33-22.56-4.1,1-8.21,6.15-11.79,11.79-12.31l-0.51-.51c29.23-2.05,21-16.92,26.15-23.08,5.13-9.23,16.41-11.28,25.13,0a31,31,0,0,0,11.79,6.67c2.05,1,3.59,1,5.64,1.54,9.23,0.51,18.46-5.13,31.79-13.85l-9.23-39.49L219,229.67l-7.69-27.18,38.46-9.23,16.92,12.31,3.08,22.05,10.77-1-5.13-7.69-1-27.69h47.18l-1,27.69-5.13,7.69,10.77,1,3.08-22.05,16.92-12.31,38.46,9.23L377,229.67l-13.33,6.67-9.23,39.49c10.77,6.67,19,11.79,26.15,13.33a23,23,0,0,0,5.64.51c5.64-.51,11.28-3.08,17.44-8.21,3.08-4.1,6.67-6.67,10.26-7.18a10,10,0,0,1,3.59-.51,14.51,14.51,0,0,1,11.28,7.69c5.13,6.15-3.08,21,25.64,23.08v0.51c5.64,0.51,10.77,4.1,11.79,12.31-0.51,17.44-22.56,15.9-22.56,4.1,0-1,.51-2.05.51-3.08-3.59,8.21-5.64,24.1-6.67,47.69-1,33.85.51,46.15,10.77,49.74-3.59-1.54-7.18-9.23-2.56-15.9,7.18-8.21,23.08-3.08,22.56,9.74-1,5.64-3.08,9.23-8.21,11.28-7.18,2.56-13.33,9.23-11.79,22.05,1.54,9.74-2.56,15.9-7.69,17.95,39,77.44-10.26,115.9-54.87,140.51-26.67,14.87-44.62,16.41-57.95,39-3.59,5.64-6.67,5.13-10.26-1a23.68,23.68,0,0,0-7.18,8.21c-1-2.56-2.56-3.08-5.13.51-1,1.54-2.56,3.59-7.18,6.67C293.38,651.72,291.85,649.67,290.82,648.13ZM440.56,460.95h0m-285.13,0v0m9.23-.51h0Zm266.67,0h0m-286.15-44.1h0Zm306.15,0h0Zm-304.62,0h0Zm304.1,0h0Zm-307.18,0h0Zm307.69,0h0Zm-307.69,0h0Zm308.72,0h0Zm-310.26,0h0Zm311.28,0h0Zm-305.64-.51a1,1,0,0,1-1,.51A1,1,0,0,0,147.74,415.82Zm300.51,0a1,1,0,0,0,1,.51A1,1,0,0,1,448.26,415.82Zm-306.15.51c-0.51-.51-0.51,0,0,0h0Zm311.79,0h0Zm-311.79,0-0.51-.51,0.51,0.51h0Zm311.79,0,0.51-.51-0.51.51h0Zm-312.82-.51h0Zm313.33,0h0Zm-313.33,0h0Zm313.85,0h0Zm-313.85,0h0Zm313.85,0h0Zm-314.87-.51h0l0.51,0.51Zm315.38,0.51,0.51-.51h0Zm-315.9-.51h0Zm316.92,0h0Zm0,0h0Zm-316.41,0h0Zm-1-.51h0l0.51,0.51A0.5,0.5,0,0,0,139,414.79Zm317.44,0.51,0.51-.51h0Zm-317.44-1v0.51C138.51,414.28,138.51,414.28,139,414.28ZM457,414.79h0c0.51-.51,1-1.54,0,0h0Zm-317.95,0v-0.51c-0.51,0-.51,0,0,0.51h0Zm317.95,0h0Zm0,0h0Zm0,0h0Zm0,0h0Zm0,0h0Zm0,0h0v0h0Zm0,0h0Zm-317.95,0L137,411.72c-0.51-.51-0.51,0,1.54,2.05C138,413.77,138.51,414.28,139,414.79Zm317.95,0,2.05-3.08v-0.51C459,411.72,458.51,412.74,457,414.79Zm0,0v-0.51h0v0.51ZM139,414.28c-1-.51-0.51,0,0,0.51h0C138.51,413.77,138,413.26,139,414.28ZM457,414.79h0l0.51-.51C457,414.28,457,414.28,457,414.79Zm0,0h0c1-1.54,1-1.54,1-1Zm0-.51h0Zm1-.51c0-.51,0,0-0.51.51A0.5,0.5,0,0,1,458,413.77Zm-319,.51h0Zm317.95,0h0Zm-318.46-.51,0.51,0.51ZM137,411.72l-0.51-2.56A5.58,5.58,0,0,0,137,411.72Zm322.56-2.56L459,411.21c0.51-.51.51-0.51,0,0.51A5.58,5.58,0,0,0,459.54,409.15Zm-323.08,0h0Zm323.08,0h0Zm-323.08-1h0v0Zm323.08,1v-1h0v1Zm-323.08-1H137c0-1,0-.51-0.51,0h0Zm323.08,0c-0.51-.51-0.51-1-0.51,0h0.51Zm-323.08,0,1-1.54h0a2.25,2.25,0,0,0-.51,1.54h-0.51Zm323.08,0-1-1.54h0l1,1.54h0Zm0,0h0c-0.51-1-.51-0.51,0,0h0Zm-0.51,0s0-.51.51,0H459Zm-316.41-2.05a0.5,0.5,0,0,0,.51.51C142.62,406.08,142.1,406.08,142.62,406.08Zm310.77,0-0.51.51A0.5,0.5,0,0,0,453.38,406.08Zm-315.9.51h0Zm0,0h0Zm321,0h0Zm0,0h0Zm-321,0h0Zm0,0h0Zm321,0h0Zm-321,0h0Zm321,0h0Zm0,0h0Zm-321,0h0Zm321,0h0Zm-321,0h0Zm321,0h0Zm-321,0h0Zm321,0h0Zm-321,0,1-1a1.79,1.79,0,0,1,1-.51,1.79,1.79,0,0,0-1,.51Zm321,0-1-1a1.79,1.79,0,0,0-1-.51,1.79,1.79,0,0,1,1,.51Zm-5.13-.51,0.51-.51Zm-310.77,0-0.51-.51Zm-0.51-.51h0Zm311.79,0h0Zm-311.79,0h0Zm311.79,0h0.51c0-.51,0,0-0.51,0h0Zm-311.79,0h0Zm-0.51,0v-0.51h0C141.08,405.05,141.59,405.05,141.59,405.56Zm312.82-.51h0v0.51C454.41,405.05,454.92,405.05,454.41,405.05Zm-312.82,0h0Zm312.82,0h0Zm0.51,0h0Zm-313.85,0h0Zm-1.54,0h0Zm316.92,0h0Zm-315.38,0h0Zm314.36,0h0Zm-315.9,0h0Zm316.92,0h0Zm-316.41,0h0Zm315.9,0h0Zm-314.87,0h0Zm314.36,0h0Zm-314.87,0h0Zm314.87,0h0ZM138.51,319.41a30.49,30.49,0,0,0,1.54,3.59C139,321.46,138.51,320.44,138.51,319.41Zm319,0c0,1-.51,2.05-1.54,3.59A30.49,30.49,0,0,0,457.49,319.41Zm-319,0v0Zm319-1v0Zm-309.74-4.62c1.54,1,2.56,2.56,4.1,4.62A12.11,12.11,0,0,0,147.74,313.77Zm300.51,0a12.11,12.11,0,0,0-4.1,4.62C445.69,316.33,446.72,314.79,448.26,313.77Zm-309.74,3.59h0v0Zm319,1v-0.51c0-.51-0.51-0.51,0-0.51h0v1Zm-319-1v0.51C138.51,317.36,139,316.85,138.51,317.36Zm319,0.51v-0.51C457,316.85,457.49,317.36,457.49,317.87Zm-319-.51,1.54-2.56c-0.51.51-.51,1-1,2.56h-0.51Zm318.46,0c-0.51-2.05-.51-2.05-1-2.56l1.54,2.56H457Zm0,0h0Zm-317.95,0c0-1,0-1-.51,0H139Zm318.46,0c-0.51-1-.51-1-0.51,0h0.51Zm-0.51,0h0Zm-316.92-2.56h0Zm315.9,0h0Zm-315.9,0v0h0Zm315.9-.51v0.51h0v-0.51Zm-315.9.51,0.51-.51h-0.51v0.51h0Zm315.9,0v-0.51h-0.51l0.51,0.51h0Zm0-.51h0Zm-315.9,0h0Zm4.1-1.54h0a5.54,5.54,0,0,0-3.59,1.54C142.1,313.26,143.13,312.74,144.15,312.74Zm307.69,0h0c1,0,2.05.51,3.59,1.54A5.54,5.54,0,0,0,451.85,312.74Zm-306.67,0a3.92,3.92,0,0,1,2.56,1A3.92,3.92,0,0,0,145.18,312.74Zm305.64,0a3.92,3.92,0,0,0-2.56,1A3.92,3.92,0,0,1,450.82,312.74Z" transform="translate(-126.98 -190.46)"/><polygon class="cls-3" points="151.02 2.8 151.02 14.08 161.28 14.08 161.28 2.8 151.02 2.8"/><polygon class="cls-3" points="163.84 2.8 163.84 14.08 190.51 14.08 190.51 2.8 163.84 2.8"/><polygon class="cls-3" points="190.51 16.14 190.51 26.9 180.25 26.9 180.25 16.14 190.51 16.14"/><polygon class="cls-3" points="177.17 16.14 177.17 26.9 151.02 26.9 151.02 16.14 177.17 16.14"/><polygon class="cls-4" points="152.56 29.47 177.17 29.47 176.66 36.65 156.66 36.65 152.56 29.47"/><polygon class="cls-4" points="189.99 29.47 180.25 29.47 178.71 36.65 185.38 36.65 189.99 29.47"/><g id="_830878048" data-name=" 830878048"><path class="cls-2" d="M165.69,287.1c5.64-4.1,11.79-5.64,17.44,0" transform="translate(-126.98 -190.46)"/><path class="cls-2" d="M164.15,292.74c3.59-1.54,7.18-1.54,11.79,1" transform="translate(-126.98 -190.46)"/><path class="cls-2" d="M162.1,296.33c3.08,0.51,6.15,1.54,8.21,4.1" transform="translate(-126.98 -190.46)"/><path class="cls-2" d="M159.54,299.92a14.54,14.54,0,0,1,5.64,4.1" transform="translate(-126.98 -190.46)"/><path class="cls-2" d="M154.92,302c3.59,2.05,6.67,4.62,7.69,8.72" transform="translate(-126.98 -190.46)"/><path class="cls-2" d="M430.31,287.1c-5.64-4.1-11.79-5.64-17.44,0" transform="translate(-126.98 -190.46)"/><path class="cls-2" d="M431.85,292.74c-3.59-1.54-7.18-1.54-11.79,1" transform="translate(-126.98 -190.46)"/><path class="cls-2" d="M433.9,296.33c-3.08.51-6.15,1.54-8.21,4.1" transform="translate(-126.98 -190.46)"/><path class="cls-2" d="M436.46,299.92a14.54,14.54,0,0,0-5.64,4.1" transform="translate(-126.98 -190.46)"/><path class="cls-2" d="M441.08,302c-3.59,2.05-6.67,4.62-7.69,8.72" transform="translate(-126.98 -190.46)"/></g><g id="_830877344" data-name=" 830877344"><path class="cls-4" d="M268.77,290.69c-2.05-9.74-11.28-11.79-14.87-4.62-3.59,10.26,2.56,15.9,9.74,16.41,9.74-.51,14.36-8.72,11.28-20.51-5.64-14.36-22.05-13.85-33.33-5.64-25.13,14.87-33.33,17.95-49.23,5.13,20,33.85,50.26-6.15,66.67-6.15C267.23,275.31,271.85,284.54,268.77,290.69Z" transform="translate(-126.98 -190.46)"/><path class="cls-4" d="M327.23,290.69c2.05-9.74,10.77-11.79,14.87-4.62,3.59,10.26-2.56,15.9-9.74,16.41C322.62,302,318,293.77,321.08,282c5.64-14.36,22.05-13.85,33.33-5.64,25.13,14.87,33.33,17.95,49.23,5.13-20,33.85-50.26-6.15-66.67-6.15C328.77,275.31,324.15,284.54,327.23,290.69Z" transform="translate(-126.98 -190.46)"/></g><g id="_695830624" data-name=" 695830624"><path class="cls-4" d="M140.05,323c-3.08-4.62-.51-10.77,4.1-10.26,8.21-1,12.82,16.41,14.36,53.33,1,34.87-.51,46.67-11.79,50.26-8.21,1.54-13.33-6.15-8.21-10.77a3.34,3.34,0,0,1,4.62,1,3,3,0,0,0-4.62-1c-5.13,4.1-.51,12.31,8.21,10.77,3.59-.51,8.72-9.23,3.59-16.41-7.18-8.21-23.08-3.08-22.56,9.74,1.54,6.67,4.1,10.77,12.82,13.33,13.85,3.59,25.13-8.72,25.64-28.72,0.51-28.21,2.05-63.08-11.79-84.1-7.18-8.72-23.08-7.18-24.62,7.18,0.51,17.44,22.56,15.9,22.56,4.1-1.54-5.64-4.1-9.23-8.21-8.72C139.54,312.74,137,318.38,140.05,323Z" transform="translate(-126.98 -190.46)"/><path class="cls-4" d="M455.95,323c3.08-4.62.51-10.77-4.1-10.26-8.21-1-12.82,16.41-14.36,53.33-1,34.87.51,46.67,11.79,50.26,8.21,1.54,13.33-6.15,8.21-10.77a3.34,3.34,0,0,0-4.62,1,3,3,0,0,1,4.62-1c5.13,4.1.51,12.31-8.21,10.77-3.59-.51-8.72-9.23-3.59-16.41,7.18-8.21,23.08-3.08,22.56,9.74-1.54,6.67-4.1,10.77-12.82,13.33-13.85,3.59-25.13-8.72-25.64-28.72-0.51-28.21-2.05-63.08,11.79-84.1,7.18-8.72,23.08-7.18,24.62,7.18-0.51,17.44-22.56,15.9-22.56,4.1,1.54-5.64,4.1-9.23,8.21-8.72C456.46,312.74,459,318.38,455.95,323Z" transform="translate(-126.98 -190.46)"/></g><path class="cls-2" d="M298,627.1a6.15,6.15,0,0,1,0,12.31A6.15,6.15,0,0,1,298,627.1Z" transform="translate(-126.98 -190.46)"/><path class="cls-4" d="M156.46,491.21c10.26-4.1,19,8.21,12.82,17.44-5.64,6.15-11.28,2.56-10.26-1.54-1,3.08,3.08,5.64,5.64,2.05a4.61,4.61,0,0,0-4.1-7.69c-5.13,0-8.21,4.62-9.23,9.74-2.05,20.51,6.15,40,21,58.46C148.26,554.79,136.46,500.44,156.46,491.21Z" transform="translate(-126.98 -190.46)"/><g id="_695829376" data-name=" 695829376"><path class="cls-4" d="M173.9,304.54H422.62V489.67a124.62,124.62,0,1,1-249.23,0Z" transform="translate(-126.98 -190.46)"/><path class="cls-5" d="M180.05,489.67l0.51-179h235.9v179A118.51,118.51,0,0,1,298,608.13C232.87,608.13,180.05,555.31,180.05,489.67Z" transform="translate(-126.98 -190.46)"/></g><g id="_682617024" data-name=" 682617024"><polygon class="cls-6" points="171.02 65.88 171.02 91.01 178.2 81.26 171.02 65.88"/><polygon class="cls-4" points="171.02 65.88 171.02 91.01 163.84 81.26 171.02 65.88"/><polygon class="cls-6" points="146.92 83.31 171.02 91.01 163.84 81.26 146.92 83.31"/><polygon class="cls-4" points="146.92 83.31 171.02 91.01 159.22 95.11 146.92 83.31"/><polygon class="cls-6" points="156.15 111.52 171.02 91.01 159.22 95.11 156.15 111.52"/><polygon class="cls-4" points="156.15 111.52 171.02 91.01 171.02 103.31 156.15 111.52"/><polygon class="cls-6" points="185.89 111.52 171.02 91.01 171.02 103.31 185.89 111.52"/><polygon class="cls-4" points="185.89 111.52 171.02 91.01 182.81 95.11 185.89 111.52"/><polygon class="cls-6" points="195.12 83.31 171.02 91.01 182.81 95.11 195.12 83.31"/><polygon class="cls-4" points="195.12 83.31 171.02 91.01 178.2 81.26 195.12 83.31"/></g><g id="_833357456" data-name=" 833357456"><path class="cls-7" d="M298,390.18h2.56c8.21-2.05,14.36-8.72,14.36-17.44a17.57,17.57,0,0,0-13.85-16.92l-3.08-.51h-0.51l-3.08.51a17.57,17.57,0,0,0-13.85,16.92c0,8.72,6.15,15.38,14.36,17.44H298Zm0-5.64h-2.05a12.07,12.07,0,0,1-9.74-11.79,11.53,11.53,0,0,1,9.74-11.28l2.05-.51,1.54,0.51a11.53,11.53,0,0,1,9.74,11.28,12.07,12.07,0,0,1-9.74,11.79H298Z" transform="translate(-126.98 -190.46)"/><path class="cls-7" d="M303.13,395.82V383.51h0v-1a2.82,2.82,0,0,0-2.56-1.54,2.35,2.35,0,0,0-2.05,2.56h0v12.31h4.62Z" transform="translate(-126.98 -190.46)"/><path class="cls-7" d="M292.87,395.82V383.51h0l0.51-1c0-1,1-1.54,2.05-1.54a2.42,2.42,0,0,1,2.56,2.56h0v12.31h-5.13Z" transform="translate(-126.98 -190.46)"/><path class="cls-7" d="M248.26,493.26a20.47,20.47,0,0,0-3.59,6.67c-3.08-10.26-3.08-20-3.59-31.79,3.08,6.15,9.74,12.82,16.41,17.95-3.08.51-4.1,1-5.13,2.56,10.77,18.46,40.51,10.26,38.46-19.49h14.36c-2.05,29.74,27.69,37.95,38.46,19.49-1-1.54-2.05-2.05-5.64-2.56,7.18-5.13,13.85-11.79,16.92-17.95-0.51,11.79-.51,21.54-3.59,31.79a20.47,20.47,0,0,0-3.59-6.67c-4.62,8.72-12.31,12.31-21.54,12.31-7.69,0-14.87-2.56-19.49-8.72L298,492.23l-8.72,4.62c-4.62,6.15-11.79,8.72-19.49,8.72C260.56,505.56,252.87,502,248.26,493.26Z" transform="translate(-126.98 -190.46)"/><path class="cls-7" d="M232.87,517.36c-2.56,3.59-3.59,5.13-4.62,8.21a168.6,168.6,0,0,1-4.62-39c7.18,11.79,13.85,16.41,22.05,22.56-3.08,0-5.64.51-7.69,2.56,15.38,22.56,52.31,17.95,52.82-28.21l-4.62-90.77h23.59l-4.62,90.77c0.51,46.15,37.44,50.77,52.82,28.21-2.05-2.05-5.13-2.56-7.69-2.56,8.21-6.15,14.87-10.77,22.05-22.56a168.6,168.6,0,0,1-4.62,39c-1-3.08-2.05-4.62-4.62-8.21-7.69,13.33-25.64,17.95-31.79,16.92-11.79,0-31.79-14.87-33.33-34.36-1.54,19.49-21.54,34.36-33.33,34.36C258.51,535.31,240.56,530.69,232.87,517.36Z" transform="translate(-126.98 -190.46)"/></g><path class="cls-4" d="M236.46,608.13c-17.95-7.69-36.41-17.44-51.28-32.82-5.64-7.18-5.13-11.79-2.05-14.36,5.64-3.59,8.21,7.18.51,5.13,2.05,3.08,6.15,1,7.18-3.08,1-8.72-8.21-10.77-13.33-7.18-5.64,6.15-3.08,14.87,6.67,24.1,21.54,15.9,44.62,25.13,60,31.28Z" transform="translate(-126.98 -190.46)"/><g id="_692281376" data-name=" 692281376"><polygon class="cls-4" points="87.94 13.57 96.66 11.52 99.22 22.29 90.51 24.34 87.94 13.57"/><polygon class="cls-4" points="98.71 11.01 122.3 5.88 123.84 16.65 101.79 21.78 98.71 11.01"/><polygon class="cls-4" points="124.35 6.39 138.2 16.14 138.71 23.83 126.4 16.65 124.35 6.39"/><polygon class="cls-4" points="126.92 19.21 139.22 26.39 140.25 36.65 128.45 29.47 126.92 19.21"/><polygon class="cls-4" points="124.86 19.21 126.4 29.47 118.71 31.52 116.66 20.75 124.86 19.21"/><polygon class="cls-4" points="114.09 21.26 91.53 26.39 94.09 37.67 116.15 31.52 114.09 21.26"/><polygon class="cls-4" points="115.63 34.6 123.33 40.24 107.43 44.34 97.69 39.21 115.63 34.6"/><polygon class="cls-4" points="119.22 33.57 127.43 39.72 137.69 38.19 127.94 31.52 119.22 33.57"/><polygon class="cls-4" points="217.69 6.39 203.84 16.14 203.33 23.83 215.63 16.65 217.69 6.39"/><polygon class="cls-4" points="215.12 19.21 202.81 26.39 201.79 36.65 213.58 29.47 215.12 19.21"/><polygon class="cls-4" points="215.63 32.03 237.17 36.13 226.92 42.29 204.35 38.19 215.63 32.03"/><polygon class="cls-4" points="230.51 42.29 239.74 36.65 246.92 38.19 237.17 44.34 230.51 42.29"/><path class="cls-4" d="M281.08,239.92l-0.51-9.74c5.64,0,11.79-.51,17.44-0.51,6.15,0,11.79,0,17.44.51l-0.51,9.74c-5.64-.51-11.28-0.51-16.92-0.51S286.72,239.92,281.08,239.92Z" transform="translate(-126.98 -190.46)"/><path class="cls-4" d="M246.72,245.05l-1.54-9.74A316.23,316.23,0,0,1,277,230.69l1,9.74C267.23,240.95,257,243,246.72,245.05Z" transform="translate(-126.98 -190.46)"/><path class="cls-4" d="M238,247.62l-2.56-9.74c2.56-.51,4.62-1.54,7.18-2.05l2.05,9.74A25.39,25.39,0,0,0,238,247.62Z" transform="translate(-126.98 -190.46)"/><path class="cls-4" d="M241.59,261.46L239,251.72a176.79,176.79,0,0,1,23.59-6.15l1.54,9.74A130.84,130.84,0,0,0,241.59,261.46Zm26.15-7.18-1-9.23A184.77,184.77,0,0,1,296.46,243v8.72A170.89,170.89,0,0,0,267.74,254.28Z" transform="translate(-126.98 -190.46)"/><path class="cls-4" d="M243.64,272.23l-2.05-7.18c15.9-6.15,33.85-9.74,53.85-10.26l-5.64,6.15A129.92,129.92,0,0,0,243.64,272.23Z" transform="translate(-126.98 -190.46)"/><path class="cls-4" d="M349.28,245.05l1.54-9.74A316.23,316.23,0,0,0,319,230.69l-1,9.74C328.77,240.95,339,243,349.28,245.05Z" transform="translate(-126.98 -190.46)"/><path class="cls-4" d="M358,247.62l2.56-9.74c-2.56-.51-4.62-1.54-7.18-2.05l-2.05,9.74A25.39,25.39,0,0,1,358,247.62Z" transform="translate(-126.98 -190.46)"/><path class="cls-4" d="M354.41,261.46l2.56-9.74a176.79,176.79,0,0,0-23.59-6.15l-1.54,9.74A130.84,130.84,0,0,1,354.41,261.46Zm-26.15-7.18,1-9.23A184.77,184.77,0,0,0,299.54,243v8.72A170.89,170.89,0,0,1,328.26,254.28Z" transform="translate(-126.98 -190.46)"/><path class="cls-4" d="M352.36,272.23l2.05-7.18c-15.9-6.15-33.85-9.74-53.85-10.26l5.64,6.15A129.92,129.92,0,0,1,352.36,272.23Z" transform="translate(-126.98 -190.46)"/><polygon class="cls-4" points="219.74 5.37 229.48 7.93 226.92 18.19 218.2 16.14 219.74 5.37"/><polygon class="cls-4" points="231.53 7.93 254.09 13.06 251.53 24.34 228.97 19.21 231.53 7.93"/><polygon class="cls-4" points="251.02 26.9 248.45 36.65 240.25 34.6 243.33 24.85 251.02 26.9"/><polygon class="cls-4" points="240.76 24.34 218.2 18.7 216.15 29.47 238.2 34.08 240.76 24.34"/></g><path class="cls-2" d="M298,627.1a6.15,6.15,0,0,1,0,12.31A6.15,6.15,0,0,1,298,627.1Z" transform="translate(-126.98 -190.46)"/><g id="_690696560" data-name=" 690696560"><path class="cls-4" d="M359.54,608.13c17.95-7.69,36.41-17.44,50.77-32.82,6.15-7.18,5.64-11.79,2.56-14.36-5.64-3.59-8.21,7.18-.51,5.13-2.05,3.08-6.15,1-7.18-3.08-1-8.72,8.21-10.77,13.33-7.18,5.64,6.15,3.08,14.87-6.67,24.1-21.54,15.9-44.62,25.13-60,31.28Z" transform="translate(-126.98 -190.46)"/><path class="cls-4" d="M439.54,491.21c-10.26-4.1-19,8.21-12.82,17.44,5.64,6.15,11.28,2.56,10.26-1.54,1,3.08-3.08,5.64-5.64,2.05a4.61,4.61,0,0,1,4.1-7.69c5.13,0,8.21,4.62,9.23,9.74,2.05,20.51-6.67,40-21,58.46C447.23,554.79,459.54,500.44,439.54,491.21Z" transform="translate(-126.98 -190.46)"/><path class="cls-4" d="M156.46,491.21c10.26-4.1,19,8.21,12.82,17.44-5.64,6.15-11.28,2.56-10.26-1.54-1,3.08,3.08,5.64,5.64,2.05a4.61,4.61,0,0,0-4.1-7.69c-5.13,0-8.21,4.62-9.23,9.74-2.05,20.51,6.15,40,21,58.46C148.26,554.79,136.46,500.44,156.46,491.21Z" transform="translate(-126.98 -190.46)"/><path class="cls-4" d="M236.46,608.13c-17.95-7.69-36.41-17.44-51.28-32.82-5.64-7.18-5.13-11.79-2.05-14.36,5.64-3.59,8.21,7.18.51,5.13,2.05,3.08,6.15,1,7.18-3.08,1-8.72-8.21-10.77-13.33-7.18-5.64,6.15-3.08,14.87,6.67,24.1,21.54,15.9,44.62,25.13,60,31.28Z" transform="translate(-126.98 -190.46)"/></g><g id="_833435984" data-name=" 833435984"><path class="cls-4" d="M290.82,648.13c-2.56-3.59-4.1-3.08-5.13-.51a23.68,23.68,0,0,0-7.18-8.21c-3.59,6.15-7.18,6.67-10.26,1-13.33-22.56-31.28-24.1-57.95-39-44.62-24.62-93.85-63.08-54.87-140.51,3.08,2.56,3.59,7.18-1,14.36-27.69,52.82,5.13,103.59,85.13,133.85,11.28,5.64,26.67,12.31,34.87,25.64a12.71,12.71,0,0,1,10.26-4.1c2.56,0,4.1.51,4.1,2.56,0.51,5.13,3.59,9.74,9.23,12.31,5.64-2.56,8.72-7.18,9.23-12.31,0-2.05,1.54-2.56,4.1-2.56a12.71,12.71,0,0,1,10.26,4.1c8.21-13.33,23.59-20,34.87-25.64,80-30.26,112.82-81,84.62-133.85-4.1-7.18-3.59-11.79-.51-14.36,39,77.44-10.26,115.9-54.87,140.51-26.67,14.87-44.62,16.41-57.95,39-3.59,5.64-6.67,5.13-10.26-1a23.68,23.68,0,0,0-7.18,8.21c-1-2.56-2.56-3.08-5.13.51-1,1.54-2.56,3.59-7.18,6.67C293.38,651.72,291.85,649.67,290.82,648.13Z" transform="translate(-126.98 -190.46)"/></g><g id="_695482928" data-name=" 695482928"><path class="cls-2" d="M449.79,430.18c-6.15.51-10.77-1.54-13.33-6.67" transform="translate(-126.98 -190.46)"/><path class="cls-2" d="M448.26,435.31c-4.62,1.54-8.72.51-11.79-3.59" transform="translate(-126.98 -190.46)"/><path class="cls-2" d="M447.74,440.95c-4.62,2.56-9.23,1.54-13.33-2.56" transform="translate(-126.98 -190.46)"/><path class="cls-2" d="M448.26,446.59c-5.13,3.08-10.26,2.05-15.38-2.56" transform="translate(-126.98 -190.46)"/><path class="cls-2" d="M447.74,452.74c-4.62,4.1-11.79,3.08-17.44-1.54" transform="translate(-126.98 -190.46)"/><path class="cls-2" d="M460.05,420.95c-7.18,2.56-13.33,9.23-11.79,22.05,3.08,19-14.87,24.1-21,13.33" transform="translate(-126.98 -190.46)"/><path class="cls-2" d="M146.21,430.18c6.15,0.51,10.77-1.54,13.33-6.67" transform="translate(-126.98 -190.46)"/><path class="cls-2" d="M147.74,435.31c4.62,1.54,8.72.51,11.79-3.59" transform="translate(-126.98 -190.46)"/><path class="cls-2" d="M148.26,440.95c4.62,2.56,9.23,1.54,12.82-2.56" transform="translate(-126.98 -190.46)"/><path class="cls-2" d="M147.74,446.59c5.13,3.08,10.26,2.05,15.38-2.56" transform="translate(-126.98 -190.46)"/><path class="cls-2" d="M148.26,452.74c4.62,4.1,11.79,3.08,17.44-1.54" transform="translate(-126.98 -190.46)"/><path class="cls-2" d="M135.95,420.95c7.18,2.56,13.33,9.23,11.79,22.05-3.08,19,14.87,24.1,21,13.33" transform="translate(-126.98 -190.46)"/></g><path class="cls-2" d="M293.38,254.79h9.23" transform="translate(-126.98 -190.46)"/></g></svg>