<?xml version="1.0" standalone="no"?>
<!DOCTYPE svg PUBLIC "-//W3C//DTD SVG 20010904//EN"
 "http://www.w3.org/TR/2001/REC-SVG-20010904/DTD/svg10.dtd">
<svg version="1.0" xmlns="http://www.w3.org/2000/svg"
 width="100.000000pt" height="100.000000pt" viewBox="0 0 100.000000 100.000000"
 preserveAspectRatio="xMidYMid meet">

<g transform="translate(0.000000,100.000000) scale(0.100000,-0.100000)"
fill="#000000" stroke="none">
<path d="M77 902 c-9 -10 -17 -21 -17 -24 0 -3 63 -82 140 -174 104 -126 140
-176 140 -196 l0 -28 100 0 100 0 0 34 c0 32 -13 46 -210 216 -116 99 -216
183 -223 186 -8 2 -21 -4 -30 -14z"/>
<path d="M80 699 c0 -79 2 -88 23 -102 18 -12 20 -18 10 -28 -10 -10 -16 -10
-25 -1 -15 15 -48 16 -48 2 0 -17 39 -50 60 -50 26 0 60 34 60 60 0 11 -9 29
-20 40 -15 15 -20 33 -20 69 0 34 -6 56 -20 72 l-19 24 -1 -86z"/>
<path d="M600 720 c-19 -19 -20 -33 -20 -250 l0 -230 40 0 c33 0 42 -4 49 -22
18 -46 59 -73 111 -73 52 0 93 27 111 73 6 16 17 22 39 22 17 0 39 9 51 21 19
19 20 30 17 149 l-3 128 -40 58 c-22 32 -58 78 -81 101 l-41 43 -106 0 c-94 0
-109 -2 -127 -20z m327 -154 c18 -26 33 -52 33 -57 0 -6 -46 -8 -107 -7 l-108
3 -3 44 c-5 69 -2 72 79 69 l72 -3 34 -49z m-92 -251 c50 -49 15 -135 -55
-135 -41 0 -80 39 -80 80 0 41 39 80 80 80 19 0 40 -9 55 -25z"/>
<path d="M0 360 c0 -101 15 -120 90 -120 43 0 52 -3 59 -22 18 -46 59 -73 111
-73 52 0 93 27 111 73 8 20 15 22 89 22 l80 0 0 100 0 100 -270 0 -270 0 0
-80z m315 -45 c33 -32 33 -78 0 -110 -49 -50 -135 -15 -135 55 0 19 9 40 25
55 15 16 36 25 55 25 19 0 40 -9 55 -25z"/>
</g>
</svg>
